<?xml version="1.0" encoding="UTF-8"?>
<svg width="24px" height="24px" viewBox="0 0 24 24" version="1.1" xmlns="http://www.w3.org/2000/svg" xmlns:xlink="http://www.w3.org/1999/xlink">
    <title>icon/catalogue/l</title>
    <g id="crowdloan" stroke="none" stroke-width="1" fill="none" fill-rule="evenodd">
        <g id="H5-home" transform="translate(-335.000000, -100.000000)">
            <g id="icon/catalogue/l" transform="translate(335.000000, 100.000000)">
                <rect id="Rectangle-3" fill="#D8D8D8" opacity="0" x="0" y="0" width="24" height="24"></rect>
                <path d="M4,4.5 L20,4.5 C20.5522847,4.5 21,4.94771525 21,5.5 C21,6.05228475 20.5522847,6.5 20,6.5 L4,6.5 C3.44771525,6.5 3,6.05228475 3,5.5 C3,4.94771525 3.44771525,4.5 4,4.5 Z M6,11 L20,11 C20.5522847,11 21,11.4477153 21,12 C21,12.5522847 20.5522847,13 20,13 L6,13 C5.44771525,13 5,12.5522847 5,12 C5,11.4477153 5.44771525,11 6,11 Z M8,17.5 L20,17.5 C20.5522847,17.5 21,17.9477153 21,18.5 C21,19.0522847 20.5522847,19.5 20,19.5 L8,19.5 C7.44771525,19.5 7,19.0522847 7,18.5 C7,17.9477153 7.44771525,17.5 8,17.5 Z" id="Rectangle-12" fill="#242629" transform="translate(12.000000, 12.000000) scale(-1, 1) translate(-12.000000, -12.000000) "></path>
            </g>
        </g>
    </g>
</svg>