<?xml version="1.0" standalone="no"?><!DOCTYPE svg PUBLIC "-//W3C//DTD SVG 1.1//EN" "http://www.w3.org/Graphics/SVG/1.1/DTD/svg11.dtd"><svg t="1617945876445" class="icon" viewBox="0 0 1024 1024" version="1.1" xmlns="http://www.w3.org/2000/svg" p-id="4323" xmlns:xlink="http://www.w3.org/1999/xlink" width="64" height="64"><defs><style type="text/css"></style></defs><path d="M512 512m-512 0a512 512 0 1 0 1024 0 512 512 0 1 0-1024 0Z" fill="#EC0928" p-id="4324"></path><path d="M215.108267 193.706667l2.3552 0.3072 492.475733 113.493333c1.365333 0.341333 2.730667 0.9216 3.8912 1.706667l101.6832 70.075733a11.264 11.264 0 0 1 2.833067 15.7696l-3.822934 5.495467a10.5472 10.5472 0 0 1-1.365333 1.979733l-338.158933 483.293867a10.581333 10.581333 0 0 1-10.376534 5.8368 10.24 10.24 0 0 1-8.704-7.031467c-0.238933-0.443733-0.546133-0.853333-0.750933-1.365333L204.322133 208.964267a11.264 11.264 0 0 1 13.141334-14.9504z m29.252266 65.297066l215.381334 578.9696 29.969066-297.472L244.394667 259.003733z m520.704 166.673067l-255.112533 118.272-29.013333 287.8464 284.125866-406.1184zM254.8736 239.889067l245.76 281.941333 172.407467-185.5488L254.8736 239.889067z m437.418667 105.7792l-148.957867 160.221866 228.078933-105.710933-79.121066-54.510933z" fill="#FFFFFF" p-id="4325"></path></svg>